<?xml version="1.0" encoding="UTF-8"?>
<!-- Generator: Adobe Illustrator 27.6.1, SVG Export Plug-In . SVG Version: 6.00 Build 0)  -->
<svg version="1.1" id="Layer_1" xmlns="http://www.w3.org/2000/svg" xmlns:xlink="http://www.w3.org/1999/xlink" x="0px" y="0px" viewBox="0 0 24 24" style="enable-background:new 0 0 24 24;" xml:space="preserve">
<g>
	<path d="M15,21.8c-0.3,0-0.6-0.2-0.7-0.5L9,5.4l-2.3,6.9c-0.1,0.3-0.4,0.5-0.7,0.5H2c-0.4,0-0.8-0.3-0.8-0.8s0.3-0.8,0.8-0.8h3.5   l2.8-8.5C8.4,2.5,8.7,2.3,9,2.3s0.6,0.2,0.7,0.5L15,18.6l2.3-6.9c0.1-0.3,0.4-0.5,0.7-0.5h4c0.4,0,0.8,0.3,0.8,0.8   s-0.3,0.8-0.8,0.8h-3.5l-2.8,8.5C15.6,21.5,15.3,21.8,15,21.8z"/>
</g>
</svg>