<?xml version="1.0" encoding="UTF-8"?>
<!-- Generator: Adobe Illustrator 27.8.1, SVG Export Plug-In . SVG Version: 6.00 Build 0)  -->
<svg version="1.1" id="Layer_1" xmlns="http://www.w3.org/2000/svg" xmlns:xlink="http://www.w3.org/1999/xlink" x="0px" y="0px" viewBox="0 0 24 24" style="enable-background:new 0 0 24 24;" xml:space="preserve">
<g>
	<path d="M12,22.7C12,22.7,12,22.7,12,22.7C6.1,22.7,1.2,17.9,1.2,12C1.3,6.1,6.1,1.2,12,1.2c0,0,0,0,0,0c1.5,0,3,0.3,4.4,0.9   c0.4,0.2,0.5,0.6,0.4,1c-0.2,0.4-0.6,0.5-1,0.4C14.6,3,13.3,2.7,12,2.7c0,0,0,0,0,0c-5.1,0-9.2,4.1-9.3,9.2c0,5.1,4.1,9.3,9.2,9.3   c0,0,0,0,0,0c5.1,0,9.2-4.1,9.3-9.2v-0.9c0-0.4,0.3-0.8,0.8-0.8s0.8,0.3,0.8,0.8V12C22.7,17.9,17.9,22.7,12,22.7z"/>
</g>
<g>
	<path d="M12,14.8c-0.2,0-0.4-0.1-0.5-0.2l-3-3c-0.3-0.3-0.3-0.8,0-1.1s0.8-0.3,1.1,0l2.5,2.5l9.5-9.5c0.3-0.3,0.8-0.3,1.1,0   c0.3,0.3,0.3,0.8,0,1.1l-10,10C12.4,14.7,12.2,14.8,12,14.8z"/>
</g>
</svg>