<?xml version="1.0" encoding="utf-8"?>
<!-- Generator: Adobe Illustrator 27.8.1, SVG Export Plug-In . SVG Version: 6.00 Build 0)  -->
<svg version="1.1" id="Layer_1" xmlns="http://www.w3.org/2000/svg" xmlns:xlink="http://www.w3.org/1999/xlink" x="0px" y="0px"
	 viewBox="0 0 24 24" style="enable-background:new 0 0 24 24;" xml:space="preserve">
<g>
	<path d="M20,22.8h-9c-1.5,0-2.8-1.2-2.8-2.8v-9c0-1.5,1.2-2.8,2.8-2.8h9c1.5,0,2.8,1.2,2.8,2.8v9C22.8,21.5,21.5,22.8,20,22.8z
		 M11,9.8c-0.7,0-1.2,0.6-1.2,1.2v9c0,0.7,0.6,1.2,1.2,1.2h9c0.7,0,1.2-0.6,1.2-1.2v-9c0-0.7-0.6-1.2-1.2-1.2H11z"/>
</g>
<g>
	<path d="M5,15.8H4c-1.5,0-2.8-1.2-2.8-2.8V4c0-1.5,1.2-2.8,2.8-2.8h9c1.5,0,2.8,1.2,2.8,2.8v1c0,0.4-0.3,0.8-0.8,0.8
		S14.2,5.4,14.2,5V4c0-0.7-0.6-1.2-1.2-1.2H4C3.3,2.8,2.8,3.3,2.8,4v9c0,0.7,0.6,1.2,1.2,1.2h1c0.4,0,0.8,0.3,0.8,0.8
		S5.4,15.8,5,15.8z"/>
</g>
</svg>
