<?xml version="1.0" encoding="utf-8"?>
<!-- Generator: Adobe Illustrator 26.3.1, SVG Export Plug-In . SVG Version: 6.00 Build 0)  -->
<svg version="1.1" id="Layer_1" xmlns="http://www.w3.org/2000/svg" xmlns:xlink="http://www.w3.org/1999/xlink" x="0px" y="0px"
	 viewBox="0 0 128 128" style="enable-background:new 0 0 128 128;" xml:space="preserve">
<g>
	<path d="M64.36,4.04c33.05,0.05,59.72,26.32,59.82,59.56c0.1,33.04-26.33,59.29-58.44,60.02C32.32,124.38,4.65,97.47,4.61,63.9
		C4.56,30.8,31.38,4.13,64.36,4.04z M104.89,91.17c12.68-17.95,11.7-45.98-7.69-63.56c-19.33-17.53-49.05-16.68-67.28,1.57
		c-18.76,18.77-17.5,46.18-5.97,62C50.91,76.52,77.86,76.59,104.89,91.17z M31.2,99.68c10.05,9.03,21.68,13.48,35.05,13
		c11.97-0.43,22.36-4.88,31.31-12.99C75.4,88.28,53.39,88.23,31.2,99.68z"/>
	<path d="M64.41,69.3c-11.94-0.02-21.87-9.61-21.76-22.11c0.1-11.58,9.67-21.36,21.83-21.39c11.85-0.03,21.59,9.7,21.65,21.78
		C86.2,59.48,76.49,69.18,64.41,69.3z M64.44,58.39c5.97-0.03,10.84-4.86,10.82-10.76c-0.02-6.05-4.86-10.94-10.82-10.92
		c-6.07,0.01-10.92,4.88-10.87,10.92C53.61,53.63,58.45,58.42,64.44,58.39z"/>
</g>
</svg>
