<svg width="16" height="16" viewBox="0 0 16 16" fill="none" xmlns="http://www.w3.org/2000/svg">
<g clip-path="url(#clip0_1105_189)">
<path d="M7.33325 2.66602H2.66659C2.31296 2.66602 1.97382 2.80649 1.72378 3.05654C1.47373 3.30659 1.33325 3.64573 1.33325 3.99935V13.3327C1.33325 13.6863 1.47373 14.0254 1.72378 14.2755C1.97382 14.5255 2.31296 14.666 2.66659 14.666H11.9999C12.3535 14.666 12.6927 14.5255 12.9427 14.2755C13.1928 14.0254 13.3333 13.6863 13.3333 13.3327V8.66602" stroke="#253135" stroke-linecap="round" stroke-linejoin="round"/>
<path d="M12.3333 1.66617C12.5985 1.40095 12.9582 1.25195 13.3333 1.25195C13.7083 1.25195 14.068 1.40095 14.3333 1.66617C14.5985 1.93138 14.7475 2.29109 14.7475 2.66617C14.7475 3.04124 14.5985 3.40095 14.3333 3.66617L7.99992 9.9995L5.33325 10.6662L5.99992 7.9995L12.3333 1.66617Z" stroke="#253135" stroke-linecap="round" stroke-linejoin="round"/>
</g>
<defs>
<clipPath id="clip0_1105_189">
<rect width="16" height="16" fill="white"/>
</clipPath>
</defs>
</svg>
