<?xml version="1.0" encoding="utf-8"?>
<!-- Generator: Adobe Illustrator 27.3.1, SVG Export Plug-In . SVG Version: 6.00 Build 0)  -->
<svg version="1.1" id="Layer_1" xmlns="http://www.w3.org/2000/svg" xmlns:xlink="http://www.w3.org/1999/xlink" x="0px" y="0px"
	 viewBox="0 0 50 50" style="enable-background:new 0 0 50 50;" xml:space="preserve">
<style type="text/css">
	.st0{fill:none;}
</style>
<g id="Layer_2_00000036935842063327927720000001284682742047715250_" transform="translate(-0.297 0.447)">
	<g id="invisible_box" transform="translate(0.297)">
		<rect id="Rectangle_526" x="-11.6" y="-14.4" class="st0" width="75.5" height="75.5"/>
	</g>
	<g id="Q3_icons" transform="translate(5.439 6.001)">
		<path id="Path_133" d="M16.2-2.7L-2.4,16c-1.2,1.1-1.3,3-0.2,4.2c0.1,0.1,0.1,0.1,0.2,0.2l18.6,18.7c1.1,1.1,2.9,1.2,4.2,0.3
			c1.4-0.9,1.7-2.8,0.8-4.1c-0.1-0.2-0.3-0.4-0.5-0.6L7.3,21.4h33.1c1.7,0,3.1-1.4,3.1-3.1c0-1.7-1.4-3.1-3.1-3.1c0,0,0,0,0,0H7.3
			L20.7,1.7c1.2-1.1,1.3-3,0.3-4.2c-0.2-0.2-0.4-0.4-0.6-0.5C19.1-3.9,17.3-3.8,16.2-2.7z"/>
	</g>
</g>
</svg>
