<?xml version="1.0" encoding="utf-8"?>
<!-- Generator: Adobe Illustrator 26.5.0, SVG Export Plug-In . SVG Version: 6.00 Build 0)  -->
<svg version="1.1" id="Layer_1" xmlns="http://www.w3.org/2000/svg" xmlns:xlink="http://www.w3.org/1999/xlink" x="0px" y="0px"
	 viewBox="0 0 128 128" style="enable-background:new 0 0 128 128;" xml:space="preserve">
<g>
	<path d="M17.6,17.8c0,32.2,0,64.2,0,96.3c26.4,0,52.8,0,79.3,0c0-0.4,0.1-0.9,0.1-1.3c0-12.7,0-25.3,0-38c0-2.5,1-4.3,3.2-5.5
		c3.6-1.8,7.8,0.7,8.1,4.6c0,0.3,0,0.6,0,0.9c0,14.8,0,29.7,0,44.5c0,3.1-1.7,5.3-4.5,5.9c-0.4,0.1-0.8,0.1-1.2,0.1
		c-30.2,0-60.4,0-90.6,0c-3.1,0-5.5-2.2-5.7-5.3c0-0.3,0-0.7,0-1c0-35.5,0-71.1,0-106.6c0-2.9,1.2-4.8,3.7-5.8
		c0.7-0.3,1.6-0.4,2.4-0.4c11.1,0,22.1,0,33.2,0c4.1,0,6.9,3.4,5.9,7.2c-0.6,2.4-2.7,4.1-5.3,4.1c-3,0.1-6,0-9.1,0
		c-6.1,0-12.2,0-18.2,0C18.4,17.8,18.1,17.8,17.6,17.8z"/>
	<path d="M58.6,37.7c-5.2-15.4,4.6-29.4,14.6-34C84.4-1.6,97.6,0.7,106,9.5c8.2,8.6,11.2,23.2,3.2,35.3c0.2,0.2,0.4,0.5,0.7,0.7
		c4.6,4.6,9.2,9.2,13.8,13.8c3.5,3.5,1.2,8.5-2.7,9.5c-2.1,0.6-3.9-0.1-5.4-1.7c-4.5-4.5-9-9-13.6-13.6c-0.2-0.2-0.4-0.5-0.6-0.8
		c-2.5,1.7-5.1,2.9-7.8,3.7c-8.7,2.5-16.7,1-24.1-4c-1.2-0.8-2.2-1.8-3.3-2.7c-0.4-0.3-1-0.6-1.5-0.6c-9.9,0-19.8,0-29.7,0
		c-3,0-5.2-1.7-5.8-4.4c-0.8-3.3,1.4-6.5,4.8-6.9c0.5-0.1,1-0.1,1.5-0.1c7.4,0,14.7,0,22.1,0C57.8,37.7,58.1,37.7,58.6,37.7z
		 M68.6,29c0.2,9.9,7.7,17.3,17.5,17.2c9-0.1,16.7-8,16.5-17c-0.1-9.7-7.8-17.1-17.6-17C76.1,12.4,68.5,20.2,68.6,29z"/>
	<path d="M57.3,71.7c-7.5,0-14.9,0-22.4,0c-3.1,0-5.3-1.7-5.9-4.6c-0.7-3.2,1.7-6.5,4.9-6.8c0.5,0,1-0.1,1.5-0.1
		c14.6,0,29.1,0,43.7,0c1.4,0,2.7,0.1,3.8,0.9c2.1,1.4,3.1,3.8,2.5,6.3c-0.6,2.4-2.7,4.2-5.2,4.2c-4.3,0.1-8.5,0-12.8,0
		C64,71.7,60.6,71.7,57.3,71.7z"/>
	<path d="M45.9,83.1c3.9,0,7.7-0.1,11.6,0c4.2,0.1,6.7,4.7,4.7,8.4c-0.9,1.7-2.4,2.9-4.3,2.9c-8,0.1-16,0.2-23.9,0
		c-3.9-0.1-6.3-4.6-4.5-8.1c1-1.9,2.6-3.1,4.8-3.1C38.1,83,42,83.1,45.9,83.1C45.9,83.1,45.9,83.1,45.9,83.1z"/>
</g>
</svg>
