<?xml version="1.0" encoding="utf-8"?>
<!-- Generator: Adobe Illustrator 27.0.1, SVG Export Plug-In . SVG Version: 6.00 Build 0)  -->
<svg version="1.1" id="Layer_1" xmlns="http://www.w3.org/2000/svg" xmlns:xlink="http://www.w3.org/1999/xlink" x="0px" y="0px"
	 viewBox="0 0 50 50" style="enable-background:new 0 0 50 50;" xml:space="preserve">
<style type="text/css">
	.st0{fill:none;}
</style>
<g id="invisible_box">
	<rect id="Rectangle_458" x="-2.6" y="-2.5" class="st0" width="55" height="55"/>
</g>
<g id="invisible_box_00000035499967320103092030000005051918869185141176_">
	<rect id="Rectangle_464" x="-17.6" y="-4.3" class="st0" width="43" height="43"/>
</g>
<g id="icons_Q2_00000099638616799211079370000001867326805224103609_" transform="translate(3.583 1.771)">
	<path id="Path_115" d="M44.4,23c-0.1,13.2-10.8,23.9-24,23.8c-9.1,0-17.3-5.2-21.3-13.3c-0.6-1-0.3-2.4,0.7-3s2.4-0.3,3,0.7
		c0,0.1,0.1,0.1,0.1,0.2c3.2,6.8,10.1,11.1,17.6,11.1c10.8,0,19.6-8.7,19.6-19.6S31.3,3.4,20.5,3.4c-5.6,0-10.9,2.4-14.6,6.5h5.8
		c1.1,0,2.1,0.8,2.3,1.8c0.2,1.2-0.6,2.3-1.8,2.5c-0.1,0-0.2,0-0.4,0H0.9c-1.2,0-2.2-1-2.2-2.2c0,0,0,0,0,0V1.3
		c0-1.1,0.8-2.1,1.8-2.3C1.8-1.1,2.9-0.3,3,0.9c0,0.1,0,0.2,0,0.4v5.3c9.1-9.6,24.2-10.1,33.8-1C41.7,10.1,44.4,16.4,44.4,23z"/>
</g>
</svg>
