<?xml version="1.0" encoding="UTF-8"?>
<!-- Generator: Adobe Illustrator 27.2.0, SVG Export Plug-In . SVG Version: 6.00 Build 0)  -->
<svg version="1.1" id="Layer_1" xmlns="http://www.w3.org/2000/svg" xmlns:xlink="http://www.w3.org/1999/xlink" x="0px" y="0px" viewBox="0 0 50 50" style="enable-background:new 0 0 50 50;" xml:space="preserve">
<style type="text/css">
	.st0{fill:none;}
</style>
<g id="invisible_box">
	<rect id="Rectangle_543" x="-1.3" y="-1.5" class="st0" width="52.9" height="52.9"/>
</g>
<g id="invisible_box_00000132073457636159268520000003912685116764356008_">
	<rect id="Rectangle_546" x="-1.3" y="-1.2" class="st0" width="52.6" height="52.6"/>
</g>
<g id="icons_Q2">
	<g id="Group_19">
		<path id="Path_140" d="M42.8,30.8l6-1.6c0.4-2.7,0.4-5.4,0-8.1l-6-1.6c-1.1-0.3-1.7-1.4-1.4-2.4c0-0.1,0.1-0.3,0.2-0.4l3.1-5.5    c-1.5-2.2-3.4-4.1-5.6-5.6l-5.5,3.1l-0.9,0.2c-0.9,0-1.7-0.6-2-1.4l-1.6-6c-2.7-0.4-5.4-0.4-8.1,0l-1.6,6c-0.3,0.9-1.1,1.5-2,1.4    l-0.9-0.2L11,5.5C8.8,7,6.9,8.9,5.4,11.1l3.1,5.5c0.5,1,0.2,2.2-0.8,2.7c-0.1,0.1-0.3,0.1-0.4,0.2l-6,1.6c-0.4,2.7-0.4,5.4,0,8.1    l6,1.6c1.1,0.3,1.7,1.4,1.4,2.4c0,0.1-0.1,0.3-0.2,0.4l-3.1,5.5c1.5,2.2,3.4,4.1,5.6,5.6l5.5-3.1l0.9-0.2c0.9,0,1.7,0.6,2,1.4    l1.6,6c2.7,0.4,5.4,0.4,8.1,0l1.6-6c0.3-0.9,1.1-1.5,2-1.4l0.9,0.2l5.5,3.1c2.2-1.5,4.1-3.4,5.6-5.6l-3.1-5.5    c-0.5-1-0.2-2.2,0.8-2.7C42.5,30.9,42.6,30.8,42.8,30.8z M41.5,26.5h-0.2c-1.7,0.7-3,2-3.7,3.6c-0.7,1.7-0.7,3.6,0.1,5.3h0.1v0.2    l1.6,2.7c-0.2,0.3-0.5,0.6-0.9,0.9l-2.7-1.6h-0.3c-0.8-0.4-1.8-0.7-2.7-0.7c-2.7,0-5.2,1.7-6.1,4.3v0.3l0,0l-1,3.3h-1.1l-0.9-3.2    l0,0v-0.2c-0.9-2.6-3.4-4.4-6.2-4.4c-1,0-1.9,0.2-2.7,0.7h-0.3l-2.7,1.6c-0.3-0.2-0.6-0.5-0.9-0.9l1.6-2.7v-0.2h0.1    c0.8-1.7,0.8-3.6,0.1-5.3c-0.7-1.7-2-3-3.7-3.6H8.5l-3.2-1v-1.1l3.2-0.9h0.3c1.7-0.7,3-2,3.7-3.6c0.7-1.7,0.7-3.6-0.1-5.3h-0.1    v-0.2l-1.6-2.7l0.9-0.9l2.7,1.6h0.3c0.8,0.4,1.8,0.7,2.7,0.7c2.7,0,5.2-1.7,6.1-4.3V8.6l0,0l1-3.3h1.1l0.9,3.2l0,0v0.2    c0.9,2.6,3.4,4.4,6.2,4.4c1,0,1.9-0.2,2.7-0.7h0.3l2.7-1.6c0.3,0.2,0.6,0.5,0.9,0.9l-1.6,2.7v0.2h-0.1c-0.8,1.7-0.8,3.6-0.1,5.3    c0.7,1.7,2,3,3.7,3.6h0.3l3.2,0.9v1.1l-3.2,0.9L41.5,26.5z"/>
		<path id="Path_141" d="M25,15.2c-5.4,0-9.9,4.4-9.9,9.9s4.4,9.9,9.9,9.9s9.9-4.4,9.9-9.9S30.5,15.2,25,15.2z M25,30.6    c-3,0-5.5-2.5-5.5-5.5s2.5-5.5,5.5-5.5s5.5,2.5,5.5,5.5S28.1,30.6,25,30.6z"/>
	</g>
</g>
</svg>