<?xml version="1.0" encoding="utf-8"?>
<!-- Generator: Adobe Illustrator 27.2.0, SVG Export Plug-In . SVG Version: 6.00 Build 0)  -->
<svg version="1.1" id="Layer_1" xmlns="http://www.w3.org/2000/svg" xmlns:xlink="http://www.w3.org/1999/xlink" x="0px" y="0px"
	 viewBox="0 0 50 50" style="enable-background:new 0 0 50 50;" xml:space="preserve">
<style type="text/css">
	.st0{fill:none;}
</style>
<g id="invisible_box_00000101081958667219082780000008850461998180877444_">
	<rect id="Rectangle_590" x="124.5" y="-35.6" class="st0" width="370" height="370"/>
</g>
<g id="Layer_2_00000164499214580859573660000008165254333951781051_" transform="translate(0 0.5)">
	<g id="invisible_box" transform="translate(0 -0.5)">
		<rect id="Rectangle_605" x="-3.5" y="-4.3" class="st0" width="57.4" height="57.4"/>
	</g>
	<g id="icons_Q2" transform="translate(23.479 28.338)">
		<path id="Path_167" d="M24.6-17.9l-6-8.1c-0.9-1.2-2.3-1.9-3.9-1.9h-26.5c-1.5,0-2.9,0.7-3.9,1.9l-6,8.1c-0.6,0.8-1,1.9-1,2.9
			v30.5c0,2.7,2.2,4.8,4.8,4.8l0,0h38.6c2.7,0,4.8-2.2,4.8-4.8l0,0V-15C25.5-16,25.2-17,24.6-17.9L24.6-17.9z M-11.8-23.1h26.5
			l5.4,7.2h-37.4L-11.8-23.1z M20.7,15.5H3.8V2L7,5.2c0.8,0.9,2.3,1,3.2,0.2c0.1-0.1,0.3-0.3,0.4-0.4c0.7-1,0.6-2.4-0.2-3.3L3.1-5.4
			c-0.9-0.9-2.3-1-3.2-0.1c0,0-0.1,0.1-0.1,0.1l-7.2,7.1c-0.9,0.9-1,2.3-0.2,3.3C-7,6-5.6,6.3-4.6,5.6c0.2-0.1,0.3-0.2,0.4-0.4L-1,2
			v13.5h-16.9V-11h38.6L20.7,15.5z"/>
	</g>
</g>
</svg>
