<?xml version="1.0" encoding="UTF-8"?>
<!-- Generator: Adobe Illustrator 27.2.0, SVG Export Plug-In . SVG Version: 6.00 Build 0)  -->
<svg version="1.1" id="Layer_1" xmlns="http://www.w3.org/2000/svg" xmlns:xlink="http://www.w3.org/1999/xlink" x="0px" y="0px" viewBox="0 0 50 50" style="enable-background:new 0 0 50 50;" xml:space="preserve">
<style type="text/css">
	.st0{fill:none;}
</style>
<g id="invisible_box">
	<rect id="Rectangle_640" x="-10.5" y="-9.1" class="st0" width="71.5" height="71.5"/>
</g>
<g id="icons_Q2" transform="translate(39.272 62.669)">
	<path id="Path_172" d="M-13.9-31.2L-29.8-47c-1-1.2-2.8-1.3-4-0.2c-0.2,0.2-0.3,0.3-0.5,0.5c-0.9,1.2-0.8,2.9,0.3,4L-16-24.9   c1.1,1.2,2.9,1.2,4,0.2c0.1-0.1,0.1-0.1,0.2-0.2L6.1-42.7c1.1-1.1,1.2-2.8,0.3-4c-0.9-1.3-2.6-1.6-3.9-0.8   c-0.2,0.1-0.4,0.3-0.5,0.5L-13.9-31.2z"/>
</g>
</svg>