<?xml version="1.0" encoding="UTF-8"?>
<!-- Generator: Adobe Illustrator 27.0.1, SVG Export Plug-In . SVG Version: 6.00 Build 0)  -->
<svg version="1.1" id="Layer_1" xmlns="http://www.w3.org/2000/svg" xmlns:xlink="http://www.w3.org/1999/xlink" x="0px" y="0px" viewBox="0 0 50 50" style="enable-background:new 0 0 50 50;" xml:space="preserve">
<style type="text/css">
	.st0{fill:none;}
</style>
<g id="invisible_box">
	<rect id="Rectangle_536" x="-9.3" y="-9.1" class="st0" width="67.7" height="67.7"/>
</g>
<g id="icons_Q2" transform="translate(121.619 121.619)">
	<path id="Path_102" d="M-75.2-99.5h-18.3v-18.3c0-1.6-1.3-2.8-2.8-2.8c-1.6,0-2.8,1.3-2.8,2.8v18.3h-18.3c-1.6,0-2.8,1.3-2.8,2.8   s1.3,2.8,2.8,2.8h18.3v18.3c0,1.6,1.3,2.8,2.8,2.8s2.8-1.3,2.8-2.8v-18.3h18.3c1.6,0,2.8-1.3,2.8-2.8   C-72.4-98.2-73.7-99.5-75.2-99.5L-75.2-99.5z"/>
</g>
</svg>