<?xml version="1.0" encoding="utf-8"?>
<!-- Generator: Adobe Illustrator 27.0.1, SVG Export Plug-In . SVG Version: 6.00 Build 0)  -->
<svg version="1.1" id="Layer_1" xmlns="http://www.w3.org/2000/svg" xmlns:xlink="http://www.w3.org/1999/xlink" x="0px" y="0px"
	 viewBox="0 0 50 50" style="enable-background:new 0 0 50 50;" xml:space="preserve">
<style type="text/css">
	.st0{fill:none;}
</style>
<g id="invisible_box">
	<rect id="Rectangle_495" x="-6.8" y="-7.5" class="st0" width="63.8" height="63.8"/>
</g>
<g id="invisible_box_00000108999576488387089210000002724759416027300538_">
	
		<rect id="Rectangle_495_00000063600276807779768670000011807255551006919346_" x="11.4" y="11.4" class="st0" width="27" height="27"/>
</g>
<g id="icons_Q2_00000089551711395099479820000009528100016839990933_" transform="translate(3.349 5.581)">
	<g id="Group_24_00000000208515058386144870000017263629047066876605_">
		<path id="Path_118_00000081615052830859034090000012224481645416198300_" d="M45.7,3.2c0,1.5-1.2,2.7-2.7,2.7H0.1
			c-1.5,0-2.7-1.2-2.7-2.7l0,0l0,0c0-1.5,1.2-2.7,2.7-2.7l0,0H43C44.5,0.5,45.7,1.7,45.7,3.2z"/>
		<path id="Path_119_00000152961914723740621760000010034005103086215592_" d="M45.7,19.3c0,1.5-1.2,2.7-2.7,2.7H0.1
			c-1.5,0-2.7-1.2-2.7-2.7l0,0c0-1.5,1.2-2.7,2.7-2.7H43C44.5,16.6,45.7,17.8,45.7,19.3z"/>
		<path id="Path_120_00000049940606130449035900000006153387750970663577_" d="M45.7,35.4c0,1.5-1.2,2.7-2.7,2.7l0,0H0.1
			c-1.5,0-2.7-1.2-2.7-2.7l0,0l0,0c0-1.5,1.2-2.7,2.7-2.7c0,0,0,0,0,0H43C44.5,32.7,45.7,33.9,45.7,35.4L45.7,35.4z"/>
	</g>
</g>
</svg>
