<?xml version="1.0" encoding="UTF-8"?>
<!-- Generator: Adobe Illustrator 27.0.1, SVG Export Plug-In . SVG Version: 6.00 Build 0)  -->
<svg version="1.1" id="Layer_1" xmlns="http://www.w3.org/2000/svg" xmlns:xlink="http://www.w3.org/1999/xlink" x="0px" y="0px" viewBox="0 0 285 284" style="enable-background:new 0 0 285 284;" xml:space="preserve">
<style type="text/css">
	.st0{fill:none;}
</style>
<g id="invisible_box">
	<rect id="Rectangle_48" x="-24.9" y="246.8" class="st0" width="577.2" height="577.2"/>
</g>
<g id="invisible_box_00000022561798290109599110000014584815887513673868_">
	<rect id="Rectangle_322" x="-82.6" y="-82.7" class="st0" width="451" height="451"/>
</g>
<g id="icons_Q2" transform="translate(347.777 346.325)">
	<path id="Path_57" d="M-178.5-203.5l99.6-98.7c6.7-6.9,7.5-17.6,1.9-25.4c-5.5-8.2-16.6-10.4-24.8-4.9c-1.3,0.8-2.4,1.9-3.4,3   l-99.6,99.6l-99.6-99.6c-6.5-7.4-17.8-8.1-25.2-1.5c-1.1,1-2.1,2.2-3,3.4c-5.6,7.8-4.8,18.5,1.9,25.4l99.6,98.7l-99.6,98.7   c-6.7,6.9-7.5,17.6-1.9,25.4c5.5,8.2,16.6,10.4,24.8,4.9c1.3-0.8,2.4-1.9,3.4-3l99.6-99.6l99.6,99.6c6.5,7.4,17.8,8.1,25.2,1.5   c1.1-1,2.1-2.2,3-3.4c5.6-7.8,4.8-18.5-1.9-25.4L-178.5-203.5z"/>
</g>
</svg>