<?xml version="1.0" encoding="utf-8"?>
<!-- Generator: Adobe Illustrator 27.0.1, SVG Export Plug-In . SVG Version: 6.00 Build 0)  -->
<svg version="1.1" id="Layer_1" xmlns="http://www.w3.org/2000/svg" xmlns:xlink="http://www.w3.org/1999/xlink" x="0px" y="0px"
	 viewBox="0 0 50 50" style="enable-background:new 0 0 50 50;" xml:space="preserve">
<style type="text/css">
	.st0{fill:none;}
</style>
<g id="invisible_box">
	<rect id="Rectangle_536" x="-9.3" y="-9.1" class="st0" width="67.7" height="67.7"/>
</g>
<g id="invisible_box_00000109737843944562232060000015045069754418838200_">
	<rect id="Rectangle_541" x="-48.9" y="-5.6" class="st0" width="30" height="30"/>
</g>
<g id="invisible_box_00000182497086567787884680000011684154256529802681_">
	
		<rect id="Rectangle_541_00000045583867786236730800000015284405431475249793_" x="-2.6" y="-3.1" class="st0" width="56.1" height="56.1"/>
</g>
<g id="Layer_2_00000052783210703725073590000013519817620412593817_" transform="translate(0 0.926)">
	<g id="invisible_box_00000003065818920795485490000015742075642599699859_" transform="translate(0 -0.926)">
		<rect id="Rectangle_552" x="-3.3" y="-4.4" class="st0" width="57.4" height="57.4"/>
	</g>
	<g id="icons_Q2" transform="translate(49.575 42.471)">
		<path id="Path_115" d="M-2.8-35.9c0,0.7-0.2,1.4-0.7,1.9c-0.4,0.5-1,0.7-1.6,0.7h-14c-1.3,0-2.3-1-2.3-2.3V-38h-7v2.3
			c0,1.3-1,2.3-2.3,2.3h-13.8c-1.2,0-2.3-0.9-2.4-2.1c0-0.7,0.2-1.4,0.7-1.9c0.4-0.5,1-0.7,1.6-0.7h11.6v-2.3c0-1.3,1-2.3,2.3-2.3
			h11.6c1.3,0,2.3,1,2.3,2.3v2.3h11.5C-4.1-38.1-3-37.2-2.8-35.9z"/>
		<path id="Path_116" d="M-12.4-26.6l-2.8,28.1h-19.5l-2.8-28.1c-0.1-1.2-1.1-2.1-2.3-2.1l0,0c-1.3,0-2.3,1-2.3,2.3
			c0,0.1,0,0.2,0,0.2l3,30.2c0.1,1.2,1.1,2.1,2.3,2.1h23.7c1.2,0,2.2-0.9,2.3-2.1l3-30.2c0.1-1.3-0.8-2.4-2.1-2.5
			c-0.1,0-0.2,0-0.2,0l0,0C-11.3-28.7-12.3-27.8-12.4-26.6z"/>
	</g>
</g>
</svg>
