<?xml version="1.0" standalone="no"?>
<!DOCTYPE svg PUBLIC "-//W3C//DTD SVG 20010904//EN"
 "http://www.w3.org/TR/2001/REC-SVG-20010904/DTD/svg10.dtd">
<svg version="1.0" xmlns="http://www.w3.org/2000/svg"
 width="1024.000000pt" height="768.000000pt" viewBox="0 0 1024.000000 768.000000"
 preserveAspectRatio="xMidYMid meet">

<g transform="translate(0.000000,768.000000) scale(0.100000,-0.100000)"
fill="#000000" stroke="none">
<path d="M4942 5934 c-120 -32 -3 80 -2135 -2044 -595 -593 -869 -872 -892
-911 -59 -96 -81 -235 -54 -349 30 -131 133 -258 256 -317 119 -57 271 -55
389 5 20 10 372 353 782 763 411 409 977 972 1258 1252 l510 508 980 -972
c1652 -1641 1542 -1535 1604 -1563 170 -78 353 -40 497 102 109 106 150 215
140 367 -5 88 -24 144 -73 220 -33 52 -127 146 -1684 1686 -1158 1144 -1206
1192 -1258 1218 -97 49 -218 63 -320 35z"/>
</g>
</svg>
