<?xml version="1.0" encoding="utf-8"?>
<!-- Generator: Adobe Illustrator 27.0.1, SVG Export Plug-In . SVG Version: 6.00 Build 0)  -->
<svg version="1.1" id="Layer_1" xmlns="http://www.w3.org/2000/svg" xmlns:xlink="http://www.w3.org/1999/xlink" x="0px" y="0px"
	 viewBox="0 0 50 50" style="enable-background:new 0 0 50 50;" xml:space="preserve">
<style type="text/css">
	.st0{fill:none;}
</style>
<g id="invisible_box">
	<rect id="Rectangle_458" x="-2.6" y="-2.5" class="st0" width="55" height="55"/>
</g>
<g id="icons_Q2">
	<path id="Path_113" d="M28.1,25l6.4-6.3c0.8-0.8,0.9-2.1,0.2-3.1c-0.7-1-2-1.3-3-0.6c-0.2,0.1-0.3,0.2-0.4,0.4l-6.4,6.4l-6.4-6.4
		c-0.8-0.9-2.2-1-3.1-0.2c-0.1,0.1-0.3,0.3-0.4,0.4c-0.7,0.9-0.6,2.3,0.2,3.1l6.4,6.3l-6.4,6.3c-0.8,0.8-0.9,2.1-0.2,3.1
		c0.7,1,2,1.3,3,0.6c0.2-0.1,0.3-0.2,0.4-0.4l6.4-6.4l6.4,6.4c0.8,0.9,2.2,1,3.1,0.2c0.1-0.1,0.3-0.3,0.4-0.4
		c0.7-0.9,0.6-2.3-0.2-3.1L28.1,25z"/>
	<path id="Path_114" d="M43.2,6.7v36.7H6.5V6.7H43.2 M45.5,2.1H4.2c-1.3,0-2.3,1-2.3,2.3v41.3c0,1.3,1,2.3,2.3,2.3h41.3
		c1.3,0,2.3-1,2.3-2.3V4.4C47.8,3.1,46.8,2.1,45.5,2.1z"/>
</g>
</svg>
