<?xml version="1.0" encoding="utf-8"?>
<!-- Generator: Adobe Illustrator 28.2.0, SVG Export Plug-In . SVG Version: 6.00 Build 0)  -->
<svg version="1.1" id="Layer_1" xmlns="http://www.w3.org/2000/svg" xmlns:xlink="http://www.w3.org/1999/xlink" x="0px" y="0px"
	 viewBox="0 0 24 24" style="enable-background:new 0 0 24 24;" xml:space="preserve">
<g>
	<path d="M21,3.5H3C1.6,3.5,0.5,4.6,0.5,6v12c0,1.4,1.1,2.5,2.5,2.5h18c1.4,0,2.5-1.1,2.5-2.5V6C23.5,4.6,22.4,3.5,21,3.5z M3,4.5
		h18c0.8,0,1.5,0.7,1.5,1.5v1.4h-21V6C1.5,5.2,2.2,4.5,3,4.5z M21,19.5H3c-0.8,0-1.5-0.7-1.5-1.5V8.4h21V18
		C22.5,18.8,21.8,19.5,21,19.5z"/>
	<path d="M20.1,11.7h-7.3c-0.3,0-0.5,0.2-0.5,0.5s0.2,0.5,0.5,0.5h7.3c0.3,0,0.5-0.2,0.5-0.5S20.4,11.7,20.1,11.7z"/>
	<path d="M20.1,15.1h-7.3c-0.3,0-0.5,0.2-0.5,0.5s0.2,0.5,0.5,0.5h7.3c0.3,0,0.5-0.2,0.5-0.5S20.4,15.1,20.1,15.1z"/>
</g>
<g>
	<path d="M21,31.4H3c-1.4,0-2.5,1.1-2.5,2.5v12c0,1.4,1.1,2.5,2.5,2.5h18c1.4,0,2.5-1.1,2.5-2.5v-12C23.5,32.5,22.4,31.4,21,31.4z
		 M3,32.4h18c0.8,0,1.5,0.7,1.5,1.5v1.4h-21v-1.4C1.5,33.1,2.2,32.4,3,32.4z M21,47.4H3c-0.8,0-1.5-0.7-1.5-1.5v-9.6h21v9.6
		C22.5,46.7,21.8,47.4,21,47.4z"/>
	<path d="M19.3,38.2l-6.1,6.1l-2.6-2.6c-0.2-0.2-0.5-0.2-0.7,0s-0.2,0.5,0,0.7l2.9,2.9c0.1,0.1,0.2,0.1,0.4,0.1s0.3,0,0.4-0.1
		l6.4-6.4c0.2-0.2,0.2-0.5,0-0.7S19.5,38,19.3,38.2z"/>
</g>
</svg>
