<?xml version="1.0" encoding="utf-8"?>
<!-- Generator: Adobe Illustrator 26.3.1, SVG Export Plug-In . SVG Version: 6.00 Build 0)  -->
<svg version="1.1" id="Layer_1" xmlns="http://www.w3.org/2000/svg" xmlns:xlink="http://www.w3.org/1999/xlink" x="0px" y="0px"
	 viewBox="0 0 128 128" style="enable-background:new 0 0 128 128;" xml:space="preserve">
<g>
	<path d="M19.33,18.9c0,2.69,0.03,5.28-0.01,7.87c-0.03,2.48-1.08,4.4-3.34,5.55c-3.11,1.58-7.11-0.35-7.79-3.78
		c-0.13-0.64-0.17-1.31-0.17-1.96C8,22.29,8,17.99,8.01,13.69c0.01-3.8,2.22-6.06,6.02-6.19c0.35-0.01,0.7,0,1.05,0
		c32.99,0,65.98,0,98.96,0c4.2,0,6.48,2.23,6.48,6.41c0.01,33.3,0.01,66.6,0,99.89c0,3.93-2.26,6.19-6.21,6.19
		c-33.38,0.01-66.75,0.01-100.13,0c-3.93,0-6.16-2.29-6.17-6.23c-0.01-4.38-0.02-8.75,0-13.13c0.01-2.25,0.91-4.08,2.91-5.21
		c3.82-2.14,8.24,0.39,8.39,4.81c0.08,2.36,0.02,4.72,0.02,7.08c0,0.42,0,0.83,0,1.32c29.98,0,59.85,0,89.82,0
		c0-29.88,0-59.79,0-89.75C79.24,18.9,49.31,18.9,19.33,18.9z"/>
	<path d="M67.51,69.42c-0.69,0-1.13,0-1.58,0c-17.15,0-34.31-0.01-51.46,0.01c-2.46,0-4.52-0.72-5.76-2.98
		c-2.07-3.78,0.53-8.09,5-8.36c0.42-0.03,0.85-0.01,1.28-0.01c17,0,34,0,50.99,0c0.41,0,0.83,0,1.47,0
		c-0.36-0.41-0.57-0.66-0.8-0.89c-5.01-5.01-10.02-10.02-15.04-15.02c-1.67-1.67-2.02-4.36-0.84-6.44c1.26-2.2,4.22-3.44,6.73-2.64
		c0.96,0.31,1.94,0.87,2.64,1.58c8.37,8.39,16.69,16.82,25,25.26c2.24,2.27,2.25,5.41,0.01,7.69c-8.33,8.48-16.69,16.93-25.07,25.37
		c-1.96,1.97-4.58,2.27-7.03,0.93c-2.32-1.27-3.46-3.45-2.82-5.89c0.27-1.03,0.89-2.09,1.63-2.85c4.82-4.93,9.72-9.77,14.59-14.65
		C66.77,70.22,67.05,69.92,67.51,69.42z"/>
</g>
</svg>
