<?xml version="1.0" encoding="utf-8"?>
<!-- Generator: Adobe Illustrator 27.4.1, SVG Export Plug-In . SVG Version: 6.00 Build 0)  -->
<svg version="1.1" id="Layer_1" xmlns="http://www.w3.org/2000/svg" xmlns:xlink="http://www.w3.org/1999/xlink" x="0px" y="0px"
	 viewBox="0 0 24 24" style="enable-background:new 0 0 24 24;" xml:space="preserve">
<g>
	<path d="M12,23.8c-0.1,0-0.3,0-0.4-0.1c-0.4-0.3-9.3-6.3-9.3-13.6c0-5.4,4.4-9.8,9.8-9.8s9.8,4.4,9.8,9.8c0,7.3-9,13.4-9.3,13.6
		C12.3,23.7,12.1,23.8,12,23.8z M12,1.8c-4.5,0-8.2,3.7-8.2,8.2c0,5.7,6.5,10.8,8.2,12.1c1.7-1.3,8.2-6.4,8.2-12.1
		C20.2,5.5,16.5,1.8,12,1.8z"/>
</g>
<g>
	<path d="M12,13.8c-2.1,0-3.8-1.7-3.8-3.8S9.9,6.3,12,6.3c2.1,0,3.8,1.7,3.8,3.8S14.1,13.8,12,13.8z M12,7.8c-1.2,0-2.2,1-2.2,2.2
		s1,2.2,2.2,2.2c1.2,0,2.2-1,2.2-2.2S13.2,7.8,12,7.8z"/>
</g>
</svg>
