<?xml version="1.0" encoding="utf-8"?>
<!-- Generator: Adobe Illustrator 26.3.1, SVG Export Plug-In . SVG Version: 6.00 Build 0)  -->
<svg version="1.1" id="Layer_1" xmlns="http://www.w3.org/2000/svg" xmlns:xlink="http://www.w3.org/1999/xlink" x="0px" y="0px"
	 viewBox="0 0 128 128" style="enable-background:new 0 0 128 128;" xml:space="preserve">
<g>
	<path d="M63.5,125.9c-15.4,0-30.8,0-46.2,0c-3,0-5.2-1.6-6-4.2c-0.2-0.7-0.3-1.5-0.3-2.3c0-7.7,0-15.4,0-23.1
		c0-0.8,0.3-1.2,0.9-1.6c10.5-7,21.9-11.6,34.3-13.8c21.4-3.9,41.8-0.9,61,9.3c2.8,1.5,5.6,3.2,8.4,4.9c0.2,0.1,0.4,0.5,0.4,0.8
		c0,8.2,0.1,16.4,0,24.6c0,2.8-2.5,5.2-5.3,5.4c-0.5,0-1,0-1.5,0C94,125.9,78.8,125.9,63.5,125.9z M104.3,114.2c0-4,0-7.9,0-11.7
		c0-0.3-0.4-0.6-0.6-0.8c-2-1.1-4-2.1-6-3.1C88.6,94.2,79,91.8,69,91.1c-6-0.4-12.1-0.1-18.1,0.8c-9.7,1.5-18.8,4.6-27.4,9.3
		c-0.6,0.3-0.8,0.7-0.8,1.4c0,3.5,0,7,0,10.5c0,0.3,0,0.7,0.1,1C50,114.2,77.1,114.2,104.3,114.2z"/>
	<path d="M63.5,3.4c17.8,0,32.1,14.4,32.1,32.1c0,17.7-14.4,32-32.1,32c-17.8,0-32-14.4-32.1-32.3C31.4,17.8,45.9,3.4,63.5,3.4z
		 M63.5,15.2c-11.2,0-20.2,8.9-20.4,19.6c-0.2,11.8,8.7,21,20.2,21.1c11.1,0.1,20.5-9,20.5-20.1C83.9,24.4,74.9,15.2,63.5,15.2z"/>
</g>
</svg>
