<?xml version="1.0" encoding="utf-8"?>
<!-- Generator: Adobe Illustrator 27.9.0, SVG Export Plug-In . SVG Version: 6.00 Build 0)  -->
<svg version="1.1" id="Layer_1" xmlns="http://www.w3.org/2000/svg" xmlns:xlink="http://www.w3.org/1999/xlink" x="0px" y="0px"
	 viewBox="0 0 24 24" style="enable-background:new 0 0 24 24;" xml:space="preserve">
<g>
	<path d="M19,21.8H5c-1.5,0-2.8-1.2-2.8-2.8V5c0-1.5,1.2-2.8,2.8-2.8h14c1.5,0,2.8,1.2,2.8,2.8v14C21.8,20.5,20.5,21.8,19,21.8z
		 M9.8,20.3H19c0.7,0,1.2-0.6,1.2-1.2V9.8H9.8V20.3z M3.8,9.8V19c0,0.7,0.6,1.2,1.2,1.2h3.2V9.8H3.8z M9.8,8.3h10.5V5
		c0-0.7-0.6-1.2-1.2-1.2H9.8V8.3z M3.8,8.3h4.5V3.8H5C4.3,3.8,3.8,4.3,3.8,5V8.3z"/>
</g>
</svg>
